<svg xmlns="http://www.w3.org/2000/svg" xmlns:xlink="http://www.w3.org/1999/xlink" width="1080" zoomAndPan="magnify" viewBox="0 0 810 809.999993" height="1080" preserveAspectRatio="xMidYMid meet" version="1.0"><path fill="#5e5e5e" d="M 386.917969 91.140625 C 376.179688 91.332031 365.3125 92.144531 354.347656 93.714844 C 338.230469 97.222656 322.664062 102.886719 308.746094 110.199219 C 291.214844 118.164062 273.082031 126.390625 256.695312 127.558594 C 255.863281 127.613281 255.054688 127.753906 254.25 127.957031 C 231.339844 133.867188 211.574219 148.019531 198.855469 167.453125 L 196.8125 170.425781 C 196.390625 171.050781 195.996094 171.710938 195.667969 172.390625 C 184.457031 195.847656 181.472656 222.710938 187.519531 248.996094 C 191.40625 261.703125 196.042969 273.910156 200.527344 285.734375 L 201.90625 289.316406 C 212.386719 313.902344 219.996094 339.730469 224.550781 366.082031 C 224.78125 367.414062 225.199219 368.707031 225.796875 369.902344 C 230.269531 378.765625 233.765625 388.089844 236.308594 398.121094 C 237.4375 402.046875 238.589844 406.082031 239.839844 410.144531 C 240.191406 411.300781 240.871094 412.246094 241.484375 413.222656 C 241.511719 414.648438 241.699219 416.082031 242.175781 417.46875 L 261.046875 471.460938 C 262.324219 475.128906 265.105469 478.0625 268.691406 479.53125 C 272.292969 480.996094 276.335938 480.855469 279.8125 479.15625 C 315.449219 461.84375 398.910156 421.304688 514.0625 493.304688 C 516.265625 494.679688 518.769531 495.375 521.285156 495.375 C 523.117188 495.375 524.945312 495.023438 526.671875 494.261719 C 530.777344 492.480469 533.753906 488.804688 534.609375 484.414062 C 537.394531 470.238281 538.386719 447.488281 537.476562 428.964844 L 538.324219 424.902344 C 539.425781 419.535156 540.515625 414.09375 541.667969 408.710938 C 552.433594 384.765625 571.46875 361.617188 589.898438 339.21875 C 618.777344 304.113281 648.648438 267.824219 646.066406 227.257812 C 645.945312 225.410156 645.460938 223.59375 644.632812 221.949219 C 640.378906 213.578125 635.613281 205.425781 629.714844 196.28125 L 628.574219 194.449219 C 627.199219 192.300781 625.820312 190.183594 624.40625 188.15625 C 623.347656 186.636719 622.269531 185.191406 621.195312 183.777344 L 620.054688 182.238281 C 617.890625 179.355469 615.738281 176.488281 613.523438 173.769531 C 612.328125 172.332031 611.144531 170.960938 609.566406 169.179688 C 607.109375 166.351562 604.664062 163.625 602.164062 161.03125 L 598.871094 157.683594 C 595.976562 154.816406 593.070312 152.089844 590.21875 149.589844 L 588.121094 147.785156 C 551.984375 116.960938 514.871094 108.855469 492.269531 103.90625 L 479.664062 101.066406 C 450.226562 95.421875 419.132812 90.5625 386.917969 91.140625 Z M 400.402344 118.375 C 412.703125 118.734375 425.203125 119.910156 438.148438 121.691406 C 393.871094 187.617188 401.421875 276.769531 411.738281 354.535156 C 398.226562 353.488281 384.390625 353.191406 370.515625 353.871094 C 362.660156 307.582031 354.445312 249.472656 347.449219 203.6875 C 345.355469 183.070312 347.167969 162.253906 352.78125 142.316406 C 358.355469 130.316406 358.875 123.542969 363.878906 119.914062 C 376.019531 118.453125 388.101562 118.011719 400.402344 118.375 Z M 356.527344 121.214844 C 350.503906 126.308594 346.109375 134.351562 343.121094 144.546875 C 338.105469 165.269531 336.40625 186.636719 338.078125 207.90625 C 341.394531 257.566406 350.414062 306.59375 364.277344 354.296875 C 351.175781 355.21875 338.144531 356.964844 325.601562 359.765625 C 316.089844 326.96875 317.765625 289.707031 314.691406 254.96875 C 311.578125 215.257812 298.519531 177.636719 281.882812 155.375 C 280.742188 152.65625 280.878906 151.289062 281.21875 150.171875 C 288.449219 148.054688 295.574219 145.464844 302.589844 142.527344 C 303.417969 142.992188 304.257812 143.445312 305.003906 144.042969 L 305.269531 143.722656 C 304.535156 143.207031 303.761719 142.816406 302.988281 142.371094 C 308.992188 139.839844 314.929688 137.242188 320.664062 134.617188 C 332.269531 128.53125 344.566406 124.09375 356.527344 121.214844 Z M 305.003906 144.042969 L 304.84375 144.226562 L 305.269531 144.226562 C 305.1875 144.160156 305.097656 144.125 305.003906 144.042969 Z M 438.890625 121.769531 C 450.238281 123.347656 461.910156 125.339844 474.140625 127.691406 L 486.882812 130.558594 C 496.300781 132.625 507.953125 135.253906 520.671875 139.820312 C 498.65625 179.191406 483.800781 222.203125 477.035156 266.859375 C 472.167969 299.152344 469.945312 331.738281 469.972656 364.355469 C 453.421875 359.832031 434.472656 356.484375 414.523438 354.773438 C 413.734375 337.445312 413.167969 319.820312 413.886719 309.914062 C 416.25 277.09375 418.996094 175.601562 438.890625 121.769531 Z M 524.148438 141.015625 C 538.773438 146.628906 554.703125 154.996094 570.46875 168.433594 L 572.246094 170 C 574.75 172.191406 577.230469 174.535156 579.734375 177.007812 L 582.601562 179.902344 C 584.746094 182.144531 586.890625 184.519531 589.472656 187.492188 C 590.492188 188.664062 591.507812 189.828125 592.5 191.023438 C 593.996094 192.859375 595.453125 194.828125 596.933594 196.785156 C 571.816406 206.542969 530.121094 299.152344 524.441406 382.882812 C 523.449219 384.636719 522.417969 386.371094 521.496094 388.140625 C 510.148438 378.597656 494.042969 371.695312 479.554688 367.089844 C 477.273438 366.371094 474.808594 365.726562 472.414062 365.046875 C 474.589844 332.210938 477.667969 297.796875 480.644531 266.675781 C 490.292969 215.574219 515.015625 189.371094 524.148438 141.015625 Z M 276.972656 151.472656 C 277.640625 153.375 278.679688 155.167969 280.050781 156.703125 C 296.523438 179.046875 299.71875 215.390625 303.277344 255.023438 C 306.308594 289.960938 309.785156 327.429688 322.683594 360.425781 C 311.6875 363.050781 301.148438 366.511719 291.199219 370.832031 C 283.074219 341.4375 279.199219 308.292969 273.070312 278.328125 C 264.753906 237.800781 263.664062 201.53125 249.925781 190.46875 C 244.652344 183.195312 230.539062 183.839844 237.210938 170.480469 C 238.800781 167.625 240.777344 165.019531 242.679688 162.355469 C 248.058594 159.066406 253.761719 156.277344 259.957031 154.578125 C 265.640625 154.078125 271.320312 152.941406 276.972656 151.472656 Z M 238.140625 165.089844 C 236.863281 166.832031 235.597656 168.601562 234.6875 170.585938 C 232.230469 175.125 231.160156 180.285156 231.636719 185.421875 C 232.058594 188.113281 233.152344 190.667969 234.769531 192.855469 C 248.34375 203.6875 255.386719 238.109375 263.621094 278.488281 C 269.832031 308.914062 277.019531 342.582031 288.015625 372.34375 C 278.503906 376.734375 269.664062 382.007812 261.65625 388.21875 C 258.964844 378.367188 255.457031 368.699219 250.960938 359.5 C 246.011719 331.746094 237.929688 304.578125 227.097656 279.175781 L 225.929688 276.097656 C 221.609375 264.695312 217.128906 252.914062 213.746094 242.015625 C 209.398438 222.976562 211.507812 202.785156 219.71875 185.078125 L 221.363281 182.714844 C 225.890625 175.796875 231.589844 169.859375 238.140625 165.089844 Z M 598.179688 198.429688 C 598.207031 198.457031 598.207031 198.46875 598.234375 198.507812 L 599.507812 200.183594 C 600.40625 201.335938 601.28125 202.515625 602.136719 203.738281 C 603.332031 205.453125 604.496094 207.265625 605.667969 209.101562 L 606.886719 211.011719 C 611.65625 218.390625 615.566406 225.03125 619.042969 231.664062 C 619.34375 260.679688 594.832031 290.476562 568.929688 321.964844 C 558.84375 334.210938 548.613281 346.667969 539.359375 359.605469 C 560.277344 306.058594 580.472656 252.710938 598.179688 198.429688 Z M 379.804688 380.945312 C 412.828125 380.1875 446.039062 384.980469 471.328125 393.023438 C 501.511719 402.617188 508.707031 412.675781 508.992188 415.585938 C 509.496094 418.929688 509.851562 422.996094 510.109375 427.292969 L 510.027344 427.636719 C 509.566406 429.851562 509.84375 431.996094 510.425781 434.035156 C 510.683594 442.324219 510.597656 451.253906 510.136719 459.515625 C 462.746094 433.667969 420.113281 425.007812 383.785156 425.007812 C 339.398438 425.007812 304.449219 437.945312 281.75 448.207031 L 270.550781 416.167969 C 295.195312 392.042969 337.34375 381.917969 379.804688 380.945312 Z M 310.65625 505.304688 L 304.5 509.445312 C 307.109375 513.820312 310.484375 517.691406 314.453125 520.886719 C 317.578125 522.84375 321.230469 523.796875 324.910156 523.621094 C 326.800781 523.605469 328.664062 523.351562 330.484375 522.824219 L 351.03125 515.390625 C 352.429688 514.847656 353.914062 514.566406 355.410156 514.566406 C 357.667969 514.417969 359.917969 515.027344 361.808594 516.292969 C 364.402344 518.414062 366.648438 520.898438 368.46875 523.699219 L 374.308594 520.433594 L 374.308594 520.273438 C 371.78125 516.347656 368.621094 512.871094 364.964844 509.976562 C 362.03125 507.9375 358.535156 506.855469 354.960938 506.921875 C 353.761719 506.894531 352.554688 507.125 351.457031 507.585938 L 329.210938 515.019531 C 327.796875 515.453125 326.3125 515.644531 324.832031 515.601562 C 322.195312 515.792969 319.5625 515.066406 317.398438 513.53125 C 314.695312 511.179688 312.425781 508.402344 310.65625 505.304688 Z M 538.855469 520.117188 C 536.734375 520.304688 534.785156 521.351562 533.441406 523.007812 C 531.824219 524.382812 530.792969 526.304688 530.546875 528.421875 C 530.398438 528.886719 530.398438 529.394531 530.546875 529.855469 C 535.332031 534.914062 541.445312 538.472656 548.199219 540.15625 C 554.953125 542.234375 561.714844 544.238281 568.320312 546.101562 C 575.003906 548.316406 580.683594 552.847656 584.351562 558.871094 C 584.417969 559.140625 584.417969 559.421875 584.351562 559.691406 C 584.351562 560.957031 581.316406 563.019531 575.460938 565.984375 C 572.496094 567.695312 568.042969 571.464844 560.621094 577.105469 C 555.988281 580.898438 551.027344 584.257812 545.785156 587.136719 C 541.324219 589.121094 537.414062 592.183594 534.421875 596.03125 C 534.355469 596.097656 534.292969 596.160156 534.238281 596.242188 C 531.871094 598.960938 532.15625 603.117188 534.875 605.480469 C 536.289062 606.839844 538.183594 607.578125 540.15625 607.550781 C 541.554688 607.523438 542.925781 607.167969 544.164062 606.515625 C 553.730469 600.480469 562.925781 593.847656 571.691406 586.6875 C 580.578125 579.320312 589.859375 572.410156 599.453125 565.984375 C 604.796875 562.722656 607.390625 559.308594 607.390625 555.816406 C 607.214844 553.480469 605.9375 551.359375 603.96875 550.109375 C 592.527344 539.835938 579.027344 532.210938 564.390625 527.628906 L 553.613281 522.957031 C 549.984375 521.3125 546.089844 520.347656 542.121094 520.117188 C 541.03125 519.964844 539.929688 519.964844 538.855469 520.117188 Z M 242.8125 520.886719 C 233.324219 528.007812 222.949219 533.839844 211.941406 538.246094 C 201.027344 542.742188 190.691406 548.527344 181.148438 555.472656 C 176.515625 559.617188 173.8125 565.503906 173.71875 571.714844 C 174.261719 574.066406 175.933594 576.023438 178.175781 576.917969 C 180.175781 577.585938 182.269531 578.386719 184.28125 579.203125 C 204.574219 587.804688 223.613281 597.074219 241.429688 606.96875 C 243.796875 608.679688 246.015625 610.554688 248.09375 612.59375 C 249.453125 613.191406 250.914062 613.496094 252.394531 613.496094 C 256.050781 613.523438 259.613281 612.265625 262.425781 609.941406 C 265.296875 607.902344 266.804688 604.460938 266.355469 600.96875 C 266.476562 598.398438 264.9375 596.027344 262.558594 595.074219 L 231.847656 581.566406 C 221.65625 577.242188 211.714844 572.285156 202.144531 566.726562 C 208.859375 558.367188 217.914062 552.175781 228.132812 548.914062 C 238.285156 545.640625 247.652344 540.308594 255.660156 533.253906 C 256.8125 532.152344 257.449219 530.625 257.4375 529.035156 C 257.382812 526.792969 256.324219 524.6875 254.542969 523.328125 C 252.421875 521.695312 249.816406 520.832031 247.136719 520.886719 Z M 457.578125 541.882812 C 451.597656 541.664062 445.761719 543.832031 441.332031 547.878906 C 436.34375 552.8125 434.25 559.957031 435.757812 566.804688 C 436.4375 573.273438 439.03125 579.402344 443.191406 584.40625 C 446.699219 589.078125 452.183594 591.808594 458.027344 591.808594 C 461.863281 591.757812 465.609375 590.753906 468.9375 588.863281 C 476.238281 583.644531 480.074219 574.832031 478.945312 565.929688 C 478.578125 555.914062 476.214844 549.152344 471.539062 545.890625 C 467.410156 543.144531 462.539062 541.746094 457.578125 541.882812 Z M 342.402344 542.386719 C 336.425781 542.15625 330.589844 544.296875 326.160156 548.332031 C 321.144531 553.25 319.011719 560.394531 320.503906 567.257812 C 321.226562 573.710938 323.820312 579.828125 327.9375 584.855469 C 331.429688 589.53125 336.933594 592.273438 342.777344 592.261719 C 346.609375 592.195312 350.34375 591.191406 353.683594 589.316406 C 360.359375 585.304688 363.640625 577.730469 363.640625 566.382812 C 364.496094 558.933594 361.800781 551.503906 356.367188 546.339844 C 352.234375 543.609375 347.351562 542.234375 342.402344 542.386719 Z M 342.113281 558.339844 C 346.214844 558.339844 349.542969 561.667969 349.542969 565.769531 C 349.542969 569.875 346.214844 573.203125 342.113281 573.203125 C 338.007812 573.203125 334.679688 569.875 334.679688 565.769531 C 334.679688 561.667969 338.007812 558.339844 342.113281 558.339844 Z M 455.214844 559.1875 C 459.304688 559.175781 462.648438 562.488281 462.648438 566.59375 C 462.648438 570.699219 459.304688 574.027344 455.214844 574.027344 C 451.109375 574.027344 447.808594 570.699219 447.808594 566.59375 C 447.808594 562.488281 451.109375 559.1875 455.214844 559.1875 Z M 383.308594 611.292969 C 383.144531 611.457031 383.042969 611.648438 382.964844 611.878906 L 382.964844 612.488281 C 383.980469 615.328125 385.261719 618.042969 386.8125 620.636719 C 388.210938 623.125 389.976562 625.421875 392.015625 627.40625 C 393.847656 629.320312 395.992188 630.910156 398.386719 632.078125 C 400.734375 633.070312 403.261719 633.613281 405.816406 633.695312 L 406.109375 634.015625 C 408.160156 634.027344 410.191406 633.648438 412.109375 632.898438 C 413.941406 632.152344 415.679688 631.1875 417.285156 630.035156 C 418.804688 628.808594 420.242188 627.480469 421.53125 626.027344 C 422.753906 624.640625 423.832031 623.15625 424.769531 621.566406 C 425.667969 620.167969 426.480469 618.707031 427.160156 617.1875 C 427.6875 616.085938 428.121094 614.957031 428.433594 613.789062 L 428.433594 613.125 C 428.285156 612.921875 428.15625 612.691406 428.0625 612.460938 C 426.132812 615.4375 423.734375 618.050781 420.949219 620.238281 C 418.8125 622.25 416.273438 623.800781 413.515625 624.777344 C 410.730469 625.742188 407.785156 626.210938 404.835938 626.183594 C 402.320312 626.226562 399.808594 625.871094 397.402344 625.148438 C 395.335938 624.496094 393.410156 623.480469 391.695312 622.175781 C 389.957031 620.777344 388.382812 619.203125 387.023438 617.453125 C 385.597656 615.523438 384.339844 613.453125 383.308594 611.292969 Z M 363.640625 639.773438 C 333.957031 641.339844 316.65625 679.460938 275.246094 644.289062 C 263.96875 711.820312 346.492188 718.515625 380.414062 688.003906 C 403.871094 667.074219 397.261719 637.914062 363.640625 639.773438 Z M 431.644531 639.773438 C 403.300781 641.523438 398.875 668.398438 420.867188 688.003906 C 454.789062 718.503906 537.289062 711.820312 526.007812 644.289062 C 484.597656 679.460938 467.3125 641.324219 437.617188 639.773438 C 435.515625 639.660156 433.535156 639.660156 431.644531 639.773438 Z M 431.644531 639.773438 " fill-opacity="1" fill-rule="nonzero"/></svg>