<svg xmlns="http://www.w3.org/2000/svg" xmlns:xlink="http://www.w3.org/1999/xlink" width="1080" zoomAndPan="magnify" viewBox="0 0 810 809.999993" height="1080" preserveAspectRatio="xMidYMid meet" version="1.0"><path fill="#5e5e5e" d="M 169.246094 95.574219 C 128.734375 95.574219 95.574219 128.734375 95.574219 169.246094 L 95.574219 640.75 C 95.574219 681.261719 128.734375 714.421875 169.246094 714.421875 L 640.75 714.421875 C 681.261719 714.421875 714.421875 681.261719 714.421875 640.75 L 714.421875 169.246094 C 714.421875 128.734375 681.261719 95.574219 640.75 95.574219 Z M 169.246094 125.042969 L 640.75 125.042969 C 665.332031 125.042969 684.953125 144.660156 684.953125 169.246094 L 684.953125 640.75 C 684.953125 665.332031 665.332031 684.953125 640.75 684.953125 L 169.246094 684.953125 C 144.660156 684.953125 125.042969 665.332031 125.042969 640.75 L 125.042969 169.246094 C 125.042969 144.660156 144.660156 125.042969 169.246094 125.042969 Z M 242.917969 198.886719 C 226.78125 198.886719 212.257812 203.710938 201.507812 212.757812 C 190.753906 221.804688 184.152344 235.324219 184.152344 249.796875 C 184.152344 277.308594 208.015625 298.753906 238.371094 300.878906 C 238.390625 300.886719 238.410156 300.894531 238.429688 300.90625 C 239.882812 301.402344 241.378906 301.660156 242.917969 301.683594 C 276.410156 301.683594 301.683594 278.222656 301.683594 249.796875 C 301.679688 249.535156 301.671875 249.277344 301.652344 249.019531 C 300.15625 221.019531 275.191406 198.886719 242.917969 198.886719 Z M 242.917969 228.011719 C 263.429688 228.011719 271.53125 237.171875 272.414062 250.171875 C 272.238281 262.785156 264.429688 272.558594 242.917969 272.558594 C 222.503906 272.558594 213.277344 262.105469 213.277344 249.796875 C 213.277344 243.640625 215.523438 239.003906 220.242188 235.03125 C 224.960938 231.0625 232.535156 228.011719 242.917969 228.011719 Z M 198.714844 316.589844 C 197.746094 316.589844 196.789062 316.683594 195.839844 316.875 C 194.890625 317.0625 193.96875 317.34375 193.074219 317.710938 C 192.183594 318.082031 191.332031 318.535156 190.527344 319.074219 C 189.722656 319.609375 188.980469 320.222656 188.296875 320.90625 C 187.613281 321.589844 187 322.335938 186.464844 323.140625 C 185.925781 323.941406 185.472656 324.792969 185.101562 325.6875 C 184.730469 326.578125 184.453125 327.5 184.261719 328.449219 C 184.074219 329.398438 183.980469 330.355469 183.980469 331.324219 L 183.980469 611.277344 C 183.980469 612.246094 184.074219 613.203125 184.261719 614.152344 C 184.453125 615.101562 184.730469 616.023438 185.101562 616.917969 C 185.472656 617.8125 185.925781 618.660156 186.464844 619.464844 C 187 620.269531 187.613281 621.011719 188.296875 621.699219 C 188.980469 622.382812 189.722656 622.992188 190.527344 623.53125 C 191.332031 624.066406 192.183594 624.519531 193.074219 624.890625 C 193.96875 625.261719 194.890625 625.542969 195.839844 625.730469 C 196.789062 625.917969 197.746094 626.011719 198.714844 626.011719 L 287.121094 626.011719 C 288.089844 626.011719 289.046875 625.917969 289.996094 625.730469 C 290.945312 625.542969 291.867188 625.261719 292.757812 624.890625 C 293.652344 624.519531 294.503906 624.066406 295.308594 623.53125 C 296.109375 622.992188 296.855469 622.382812 297.539062 621.699219 C 298.222656 621.011719 298.835938 620.269531 299.371094 619.464844 C 299.910156 618.660156 300.363281 617.8125 300.734375 616.917969 C 301.105469 616.023438 301.382812 615.101562 301.574219 614.152344 C 301.761719 613.203125 301.855469 612.246094 301.855469 611.277344 L 301.855469 331.324219 C 301.855469 330.355469 301.761719 329.398438 301.574219 328.449219 C 301.382812 327.5 301.105469 326.578125 300.734375 325.6875 C 300.363281 324.792969 299.910156 323.941406 299.371094 323.140625 C 298.835938 322.335938 298.222656 321.589844 297.539062 320.90625 C 296.855469 320.222656 296.109375 319.609375 295.308594 319.074219 C 294.503906 318.535156 293.652344 318.082031 292.757812 317.710938 C 291.867188 317.34375 290.945312 317.0625 289.996094 316.875 C 289.046875 316.683594 288.089844 316.589844 287.121094 316.589844 Z M 331.324219 316.589844 C 330.355469 316.589844 329.398438 316.683594 328.449219 316.875 C 327.5 317.0625 326.578125 317.34375 325.6875 317.710938 C 324.792969 318.082031 323.941406 318.535156 323.140625 319.074219 C 322.335938 319.609375 321.589844 320.222656 320.90625 320.90625 C 320.222656 321.589844 319.609375 322.335938 319.074219 323.140625 C 318.535156 323.941406 318.082031 324.792969 317.710938 325.6875 C 317.34375 326.578125 317.0625 327.5 316.875 328.449219 C 316.683594 329.398438 316.589844 330.355469 316.589844 331.324219 L 316.589844 611.277344 C 316.589844 612.246094 316.683594 613.203125 316.875 614.152344 C 317.0625 615.101562 317.339844 616.023438 317.710938 616.917969 C 318.082031 617.8125 318.535156 618.660156 319.074219 619.464844 C 319.609375 620.269531 320.222656 621.011719 320.90625 621.699219 C 321.589844 622.382812 322.335938 622.992188 323.140625 623.53125 C 323.941406 624.066406 324.792969 624.519531 325.6875 624.890625 C 326.578125 625.261719 327.5 625.542969 328.449219 625.730469 C 329.398438 625.917969 330.355469 626.011719 331.324219 626.011719 L 419.730469 626.011719 C 420.699219 626.011719 421.65625 625.917969 422.605469 625.730469 C 423.554688 625.542969 424.476562 625.261719 425.371094 624.890625 C 426.261719 624.519531 427.113281 624.066406 427.917969 623.53125 C 428.722656 622.992188 429.464844 622.382812 430.148438 621.699219 C 430.832031 621.011719 431.445312 620.269531 431.980469 619.464844 C 432.519531 618.660156 432.972656 617.8125 433.34375 616.917969 C 433.714844 616.023438 433.992188 615.101562 434.183594 614.152344 C 434.371094 613.203125 434.464844 612.246094 434.464844 611.277344 L 434.464844 463.933594 C 434.464844 451.710938 437.800781 439.550781 443.675781 431.589844 C 449.546875 423.625 456.957031 418.847656 471.042969 419.097656 C 485.566406 419.347656 493.257812 424.324219 499.074219 432.132812 C 504.890625 439.945312 508.136719 451.65625 508.136719 463.933594 L 508.136719 611.277344 C 508.136719 612.246094 508.234375 613.203125 508.421875 614.152344 C 508.609375 615.101562 508.890625 616.023438 509.261719 616.917969 C 509.628906 617.8125 510.085938 618.660156 510.621094 619.464844 C 511.160156 620.269531 511.769531 621.011719 512.453125 621.699219 C 513.136719 622.382812 513.882812 622.992188 514.6875 623.53125 C 515.492188 624.066406 516.339844 624.519531 517.234375 624.890625 C 518.128906 625.261719 519.050781 625.542969 519.996094 625.730469 C 520.945312 625.917969 521.90625 626.011719 522.871094 626.011719 L 611.277344 626.011719 C 612.246094 626.011719 613.203125 625.917969 614.152344 625.730469 C 615.101562 625.542969 616.023438 625.261719 616.917969 624.890625 C 617.8125 624.519531 618.660156 624.066406 619.464844 623.53125 C 620.269531 622.992188 621.011719 622.382812 621.699219 621.699219 C 622.382812 621.011719 622.992188 620.269531 623.53125 619.464844 C 624.066406 618.660156 624.519531 617.8125 624.890625 616.917969 C 625.261719 616.023438 625.542969 615.101562 625.730469 614.152344 C 625.917969 613.203125 626.011719 612.246094 626.011719 611.277344 L 626.011719 453.054688 C 626.011719 409.417969 613.089844 374.855469 590.933594 351.46875 C 568.777344 328.082031 537.964844 316.589844 505.375 316.589844 C 474.402344 316.589844 450.832031 326.976562 434.464844 337.570312 L 434.464844 331.324219 C 434.464844 330.355469 434.371094 329.398438 434.183594 328.449219 C 433.992188 327.5 433.714844 326.578125 433.34375 325.6875 C 432.972656 324.792969 432.519531 323.941406 431.980469 323.140625 C 431.445312 322.335938 430.832031 321.589844 430.148438 320.90625 C 429.464844 320.222656 428.722656 319.609375 427.917969 319.074219 C 427.113281 318.535156 426.261719 318.082031 425.371094 317.710938 C 424.476562 317.34375 423.554688 317.0625 422.605469 316.875 C 421.65625 316.683594 420.699219 316.589844 419.730469 316.589844 Z M 213.449219 346.058594 L 272.386719 346.058594 L 272.386719 596.542969 L 213.449219 596.542969 Z M 346.058594 346.058594 L 404.996094 346.058594 L 404.996094 369.054688 C 404.996094 369.820312 405.058594 370.582031 405.175781 371.34375 C 405.296875 372.101562 405.472656 372.84375 405.710938 373.574219 C 405.945312 374.304688 406.234375 375.011719 406.582031 375.699219 C 406.929688 376.382812 407.328125 377.039062 407.773438 377.660156 C 408.222656 378.285156 408.71875 378.867188 409.257812 379.414062 C 409.796875 379.960938 410.378906 380.460938 410.996094 380.914062 C 411.613281 381.371094 412.261719 381.773438 412.945312 382.128906 C 413.625 382.480469 414.332031 382.78125 415.058594 383.023438 C 415.789062 383.265625 416.53125 383.453125 417.285156 383.578125 C 418.042969 383.707031 418.804688 383.773438 419.574219 383.785156 C 420.339844 383.792969 421.105469 383.742188 421.863281 383.628906 C 422.625 383.519531 423.371094 383.347656 424.105469 383.121094 C 424.835938 382.894531 425.546875 382.609375 426.238281 382.269531 C 426.925781 381.933594 427.585938 381.542969 428.210938 381.101562 C 428.839844 380.660156 429.429688 380.171875 429.980469 379.636719 C 430.53125 379.101562 431.039062 378.53125 431.5 377.917969 C 431.5 377.917969 454.640625 346.058594 505.375 346.058594 C 531.210938 346.058594 553.363281 354.644531 569.550781 371.730469 C 585.738281 388.816406 596.542969 415.136719 596.542969 453.054688 L 596.542969 596.542969 L 537.605469 596.542969 L 537.605469 463.933594 C 537.605469 446.746094 533.488281 428.972656 522.730469 414.523438 C 511.96875 400.074219 493.871094 390.011719 471.5625 389.628906 C 449.132812 389.230469 430.746094 399.5 419.960938 414.121094 C 409.175781 428.738281 404.996094 446.691406 404.996094 463.933594 L 404.996094 596.542969 L 346.058594 596.542969 Z M 346.058594 346.058594 " fill-opacity="1" fill-rule="nonzero"/></svg>