<svg xmlns="http://www.w3.org/2000/svg" xmlns:xlink="http://www.w3.org/1999/xlink" width="1080" zoomAndPan="magnify" viewBox="0 0 810 809.999993" height="1080" preserveAspectRatio="xMidYMid meet" version="1.0"><path fill="#5e5e5e" d="M 278.617188 96.074219 C 177.972656 96.074219 96.074219 177.972656 96.074219 278.617188 L 96.074219 531.371094 C 96.074219 632.015625 177.972656 713.917969 278.617188 713.917969 L 531.371094 713.917969 C 632.015625 713.917969 713.917969 632.015625 713.917969 531.371094 L 713.917969 278.617188 C 713.917969 177.972656 632.015625 96.074219 531.371094 96.074219 Z M 278.617188 124.15625 L 531.371094 124.15625 C 616.835938 124.15625 685.832031 193.152344 685.832031 278.617188 L 685.832031 531.371094 C 685.832031 616.835938 616.835938 685.832031 531.371094 685.832031 L 278.617188 685.832031 C 193.152344 685.832031 124.15625 616.835938 124.15625 531.371094 L 124.15625 278.617188 C 124.15625 193.152344 193.152344 124.15625 278.617188 124.15625 Z M 573.496094 208.410156 C 572.578125 208.410156 571.660156 208.453125 570.746094 208.542969 C 569.828125 208.632812 568.921875 208.769531 568.019531 208.949219 C 567.117188 209.128906 566.226562 209.351562 565.34375 209.617188 C 564.464844 209.886719 563.601562 210.195312 562.75 210.546875 C 561.902344 210.898438 561.070312 211.292969 560.257812 211.726562 C 559.449219 212.160156 558.660156 212.632812 557.894531 213.140625 C 557.128906 213.652344 556.394531 214.199219 555.683594 214.785156 C 554.96875 215.367188 554.289062 215.984375 553.640625 216.632812 C 552.988281 217.285156 552.371094 217.964844 551.789062 218.675781 C 551.207031 219.386719 550.65625 220.125 550.148438 220.890625 C 549.636719 221.65625 549.164062 222.441406 548.730469 223.253906 C 548.296875 224.066406 547.902344 224.894531 547.550781 225.746094 C 547.199219 226.59375 546.890625 227.460938 546.625 228.339844 C 546.355469 229.222656 546.132812 230.113281 545.953125 231.015625 C 545.773438 231.917969 545.640625 232.824219 545.550781 233.738281 C 545.460938 234.65625 545.414062 235.574219 545.414062 236.492188 C 545.414062 237.414062 545.460938 238.332031 545.550781 239.246094 C 545.640625 240.160156 545.773438 241.070312 545.953125 241.972656 C 546.132812 242.875 546.355469 243.765625 546.625 244.644531 C 546.890625 245.523438 547.199219 246.390625 547.550781 247.238281 C 547.902344 248.089844 548.296875 248.921875 548.730469 249.730469 C 549.164062 250.542969 549.636719 251.332031 550.148438 252.09375 C 550.65625 252.859375 551.207031 253.597656 551.789062 254.308594 C 552.371094 255.019531 552.988281 255.699219 553.640625 256.351562 C 554.289062 257 554.96875 257.617188 555.683594 258.203125 C 556.394531 258.785156 557.128906 259.332031 557.894531 259.84375 C 558.660156 260.355469 559.449219 260.828125 560.257812 261.261719 C 561.070312 261.695312 561.902344 262.085938 562.75 262.4375 C 563.601562 262.789062 564.464844 263.101562 565.34375 263.367188 C 566.226562 263.632812 567.117188 263.859375 568.019531 264.035156 C 568.921875 264.214844 569.828125 264.351562 570.746094 264.441406 C 571.660156 264.53125 572.578125 264.578125 573.496094 264.578125 C 574.417969 264.578125 575.335938 264.53125 576.25 264.441406 C 577.164062 264.351562 578.074219 264.214844 578.976562 264.035156 C 579.878906 263.859375 580.769531 263.632812 581.648438 263.367188 C 582.53125 263.101562 583.394531 262.789062 584.246094 262.4375 C 585.09375 262.085938 585.925781 261.695312 586.734375 261.261719 C 587.546875 260.828125 588.335938 260.355469 589.101562 259.84375 C 589.863281 259.332031 590.601562 258.785156 591.3125 258.203125 C 592.023438 257.617188 592.707031 257 593.355469 256.351562 C 594.007812 255.699219 594.625 255.019531 595.207031 254.308594 C 595.789062 253.597656 596.335938 252.859375 596.847656 252.09375 C 597.359375 251.332031 597.832031 250.542969 598.265625 249.730469 C 598.699219 248.921875 599.09375 248.089844 599.445312 247.238281 C 599.796875 246.390625 600.105469 245.523438 600.371094 244.644531 C 600.640625 243.765625 600.863281 242.875 601.042969 241.972656 C 601.222656 241.070312 601.355469 240.160156 601.445312 239.246094 C 601.535156 238.332031 601.582031 237.414062 601.582031 236.492188 C 601.582031 235.574219 601.535156 234.65625 601.445312 233.738281 C 601.355469 232.824219 601.222656 231.917969 601.042969 231.015625 C 600.863281 230.113281 600.640625 229.222656 600.371094 228.339844 C 600.105469 227.460938 599.796875 226.59375 599.445312 225.746094 C 599.09375 224.894531 598.699219 224.066406 598.265625 223.253906 C 597.832031 222.441406 597.359375 221.65625 596.847656 220.890625 C 596.335938 220.125 595.789062 219.386719 595.207031 218.675781 C 594.625 217.964844 594.007812 217.285156 593.355469 216.632812 C 592.707031 215.984375 592.023438 215.367188 591.3125 214.785156 C 590.601562 214.199219 589.863281 213.652344 589.101562 213.140625 C 588.335938 212.632812 587.546875 212.160156 586.738281 211.726562 C 585.925781 211.292969 585.09375 210.898438 584.246094 210.546875 C 583.394531 210.195312 582.53125 209.886719 581.648438 209.617188 C 580.769531 209.351562 579.878906 209.128906 578.976562 208.949219 C 578.074219 208.769531 577.164062 208.632812 576.25 208.542969 C 575.335938 208.453125 574.417969 208.410156 573.496094 208.410156 Z M 404.996094 250.535156 C 319.855469 250.535156 250.535156 319.855469 250.535156 404.996094 C 250.535156 490.136719 319.855469 559.457031 404.996094 559.457031 C 490.136719 559.457031 559.457031 490.136719 559.457031 404.996094 C 559.457031 319.855469 490.136719 250.535156 404.996094 250.535156 Z M 404.996094 278.617188 C 474.957031 278.617188 531.371094 335.03125 531.371094 404.996094 C 531.371094 474.957031 474.957031 531.371094 404.996094 531.371094 C 335.03125 531.371094 278.617188 474.957031 278.617188 404.996094 C 278.617188 335.03125 335.03125 278.617188 404.996094 278.617188 Z M 404.996094 278.617188 " fill-opacity="1" fill-rule="nonzero"/></svg>