<svg xmlns="http://www.w3.org/2000/svg" xmlns:xlink="http://www.w3.org/1999/xlink" width="1080" zoomAndPan="magnify" viewBox="0 0 810 809.999993" height="1080" preserveAspectRatio="xMidYMid meet" version="1.0"><path fill="#5e5e5e" d="M 509.878906 73.523438 C 508.5 73.570312 507.136719 73.746094 505.789062 74.050781 C 504.441406 74.359375 503.136719 74.792969 501.875 75.351562 C 500.613281 75.910156 499.417969 76.585938 498.285156 77.378906 C 497.152344 78.167969 496.105469 79.0625 495.148438 80.054688 L 304.550781 270.734375 L 194.8125 380.386719 C 192.585938 382.5625 190.914062 385.101562 189.792969 388.003906 C 137.992188 446.734375 138.707031 536.304688 194.8125 592.410156 L 304.550781 702.148438 C 362.894531 760.492188 458.230469 760.492188 516.574219 702.148438 L 613.003906 605.722656 C 613.5 605.222656 613.972656 604.703125 614.417969 604.160156 C 614.867188 603.617188 615.285156 603.050781 615.675781 602.46875 C 616.066406 601.882812 616.425781 601.28125 616.757812 600.660156 C 617.089844 600.039062 617.390625 599.402344 617.660156 598.753906 C 617.929688 598.101562 618.164062 597.441406 618.371094 596.769531 C 618.574219 596.09375 618.742188 595.414062 618.882812 594.722656 C 619.019531 594.035156 619.121094 593.339844 619.191406 592.640625 C 619.257812 591.9375 619.292969 591.238281 619.292969 590.535156 C 619.292969 589.832031 619.257812 589.128906 619.1875 588.429688 C 619.117188 587.726562 619.015625 587.035156 618.875 586.34375 C 618.738281 585.652344 618.566406 584.972656 618.363281 584.300781 C 618.15625 583.625 617.921875 582.964844 617.652344 582.316406 C 617.382812 581.664062 617.078125 581.03125 616.746094 580.410156 C 616.414062 579.789062 616.054688 579.1875 615.660156 578.605469 C 615.269531 578.019531 614.851562 577.457031 614.40625 576.914062 C 613.957031 576.371094 613.484375 575.851562 612.988281 575.351562 C 612.488281 574.855469 611.96875 574.386719 611.421875 573.941406 C 610.878906 573.496094 610.3125 573.078125 609.726562 572.6875 C 609.140625 572.296875 608.539062 571.9375 607.917969 571.605469 C 607.296875 571.277344 606.660156 570.976562 606.011719 570.707031 C 605.359375 570.441406 604.699219 570.203125 604.027344 570 C 603.351562 569.796875 602.671875 569.628906 601.980469 569.492188 C 601.289062 569.359375 600.59375 569.257812 599.894531 569.1875 C 599.195312 569.121094 598.492188 569.089844 597.789062 569.089844 C 597.085938 569.089844 596.382812 569.128906 595.683594 569.199219 C 594.984375 569.269531 594.289062 569.375 593.597656 569.511719 C 592.910156 569.652344 592.230469 569.824219 591.554688 570.027344 C 590.882812 570.234375 590.222656 570.472656 589.574219 570.746094 C 588.925781 571.015625 588.289062 571.316406 587.671875 571.652344 C 587.050781 571.984375 586.449219 572.347656 585.867188 572.738281 C 585.28125 573.132812 584.71875 573.550781 584.175781 574 C 583.632812 574.449219 583.113281 574.921875 582.617188 575.421875 L 486.191406 671.847656 C 444.25 713.789062 376.792969 713.789062 334.851562 671.847656 L 225.113281 562.109375 C 183.175781 520.171875 183.175781 452.628906 225.113281 410.6875 L 334.851562 301.035156 C 376.792969 259.09375 444.25 259.09375 486.191406 301.035156 L 582.617188 397.464844 C 583.113281 397.960938 583.632812 398.433594 584.175781 398.882812 C 584.71875 399.328125 585.28125 399.746094 585.867188 400.140625 C 586.449219 400.53125 587.050781 400.894531 587.671875 401.226562 C 588.289062 401.558594 588.925781 401.859375 589.574219 402.128906 C 590.222656 402.402344 590.882812 402.640625 591.554688 402.84375 C 592.226562 403.050781 592.910156 403.222656 593.597656 403.359375 C 594.285156 403.5 594.980469 403.601562 595.679688 403.671875 C 596.378906 403.742188 597.082031 403.777344 597.785156 403.78125 C 598.488281 403.78125 599.1875 403.75 599.890625 403.679688 C 600.589844 403.613281 601.285156 403.511719 601.972656 403.375 C 602.664062 403.238281 603.34375 403.070312 604.019531 402.867188 C 604.691406 402.664062 605.351562 402.429688 606.003906 402.160156 C 606.652344 401.890625 607.289062 401.59375 607.90625 401.261719 C 608.527344 400.929688 609.132812 400.570312 609.714844 400.183594 C 610.300781 399.792969 610.867188 399.375 611.410156 398.929688 C 611.953125 398.484375 612.476562 398.011719 612.972656 397.515625 C 613.472656 397.019531 613.945312 396.5 614.390625 395.957031 C 614.835938 395.414062 615.257812 394.851562 615.648438 394.265625 C 616.039062 393.683594 616.398438 393.082031 616.734375 392.460938 C 617.066406 391.84375 617.367188 391.207031 617.636719 390.558594 C 617.90625 389.910156 618.144531 389.25 618.347656 388.574219 C 618.550781 387.902344 618.722656 387.222656 618.863281 386.53125 C 619 385.84375 619.101562 385.148438 619.171875 384.449219 C 619.242188 383.75 619.277344 383.046875 619.277344 382.34375 C 619.277344 381.644531 619.246094 380.941406 619.175781 380.242188 C 619.109375 379.542969 619.007812 378.847656 618.871094 378.15625 C 618.734375 377.46875 618.5625 376.785156 618.359375 376.113281 C 618.15625 375.441406 617.921875 374.777344 617.652344 374.128906 C 617.382812 373.480469 617.082031 372.84375 616.753906 372.222656 C 616.421875 371.605469 616.0625 371 615.671875 370.417969 C 615.28125 369.832031 614.863281 369.265625 614.417969 368.722656 C 613.972656 368.179688 613.5 367.660156 613.003906 367.160156 L 516.574219 270.734375 C 486.882812 241.042969 447.613281 226.84375 408.511719 227.375 L 525.53125 110.355469 C 526.308594 109.605469 527.019531 108.804688 527.675781 107.949219 C 528.328125 107.089844 528.914062 106.191406 529.433594 105.246094 C 529.953125 104.300781 530.394531 103.320312 530.765625 102.308594 C 531.136719 101.296875 531.429688 100.265625 531.644531 99.207031 C 531.859375 98.152344 531.992188 97.085938 532.046875 96.007812 C 532.101562 94.933594 532.074219 93.859375 531.964844 92.785156 C 531.855469 91.714844 531.667969 90.65625 531.398438 89.613281 C 531.132812 88.570312 530.785156 87.550781 530.367188 86.558594 C 529.945312 85.566406 529.449219 84.613281 528.886719 83.695312 C 528.320312 82.777344 527.6875 81.910156 526.992188 81.085938 C 526.292969 80.265625 525.539062 79.5 524.726562 78.792969 C 523.917969 78.082031 523.054688 77.441406 522.144531 76.859375 C 521.238281 76.28125 520.289062 75.777344 519.304688 75.339844 C 518.316406 74.90625 517.304688 74.546875 516.265625 74.261719 C 515.226562 73.980469 514.171875 73.777344 513.101562 73.652344 C 512.03125 73.53125 510.957031 73.488281 509.878906 73.523438 Z M 376.203125 465.011719 C 375.492188 465.003906 374.789062 465.027344 374.082031 465.089844 C 373.375 465.148438 372.675781 465.242188 371.980469 465.371094 C 371.28125 465.503906 370.59375 465.664062 369.914062 465.863281 C 369.234375 466.0625 368.566406 466.292969 367.910156 466.554688 C 367.25 466.820312 366.609375 467.117188 365.980469 467.445312 C 365.351562 467.773438 364.742188 468.128906 364.152344 468.519531 C 363.558594 468.90625 362.988281 469.324219 362.4375 469.769531 C 361.886719 470.210938 361.355469 470.683594 360.851562 471.179688 C 360.347656 471.679688 359.871094 472.199219 359.417969 472.742188 C 358.964844 473.289062 358.539062 473.855469 358.144531 474.441406 C 357.746094 475.027344 357.378906 475.632812 357.042969 476.253906 C 356.707031 476.878906 356.402344 477.515625 356.128906 478.171875 C 355.855469 478.824219 355.613281 479.488281 355.40625 480.167969 C 355.199219 480.84375 355.027344 481.527344 354.886719 482.222656 C 354.75 482.917969 354.644531 483.617188 354.574219 484.320312 C 354.503906 485.027344 354.46875 485.734375 354.46875 486.441406 C 354.46875 487.148438 354.503906 487.855469 354.574219 488.5625 C 354.644531 489.265625 354.75 489.964844 354.886719 490.660156 C 355.027344 491.355469 355.199219 492.039062 355.40625 492.71875 C 355.613281 493.394531 355.855469 494.058594 356.128906 494.710938 C 356.402344 495.367188 356.707031 496.003906 357.042969 496.628906 C 357.378906 497.25 357.746094 497.855469 358.144531 498.441406 C 358.539062 499.027344 358.964844 499.59375 359.417969 500.140625 C 359.871094 500.683594 360.347656 501.203125 360.851562 501.703125 C 361.355469 502.199219 361.886719 502.671875 362.4375 503.117188 C 362.988281 503.558594 363.558594 503.976562 364.152344 504.363281 C 364.742188 504.753906 365.351562 505.113281 365.980469 505.4375 C 366.609375 505.765625 367.25 506.0625 367.910156 506.328125 C 368.566406 506.589844 369.234375 506.820312 369.914062 507.019531 C 370.59375 507.21875 371.28125 507.382812 371.980469 507.511719 C 372.675781 507.640625 373.375 507.734375 374.082031 507.796875 C 374.789062 507.855469 375.492188 507.878906 376.203125 507.871094 L 671.933594 507.871094 C 672.640625 507.878906 673.347656 507.855469 674.050781 507.796875 C 674.757812 507.734375 675.460938 507.640625 676.15625 507.511719 C 676.851562 507.382812 677.539062 507.21875 678.21875 507.019531 C 678.898438 506.820312 679.570312 506.589844 680.226562 506.328125 C 680.882812 506.0625 681.523438 505.765625 682.152344 505.4375 C 682.78125 505.113281 683.390625 504.753906 683.984375 504.363281 C 684.574219 503.976562 685.148438 503.558594 685.699219 503.117188 C 686.25 502.671875 686.777344 502.199219 687.28125 501.703125 C 687.785156 501.203125 688.265625 500.683594 688.714844 500.140625 C 689.167969 499.59375 689.59375 499.027344 689.992188 498.441406 C 690.386719 497.855469 690.753906 497.25 691.089844 496.628906 C 691.425781 496.003906 691.730469 495.367188 692.003906 494.710938 C 692.277344 494.058594 692.519531 493.394531 692.726562 492.71875 C 692.933594 492.039062 693.105469 491.355469 693.246094 490.660156 C 693.386719 489.964844 693.492188 489.265625 693.5625 488.5625 C 693.628906 487.855469 693.664062 487.148438 693.664062 486.441406 C 693.664062 485.734375 693.628906 485.027344 693.5625 484.320312 C 693.492188 483.617188 693.386719 482.917969 693.246094 482.222656 C 693.105469 481.527344 692.933594 480.84375 692.726562 480.167969 C 692.519531 479.488281 692.277344 478.824219 692.003906 478.171875 C 691.730469 477.515625 691.425781 476.878906 691.089844 476.253906 C 690.753906 475.632812 690.386719 475.027344 689.992188 474.441406 C 689.59375 473.855469 689.167969 473.289062 688.714844 472.742188 C 688.265625 472.199219 687.785156 471.679688 687.28125 471.179688 C 686.777344 470.683594 686.25 470.210938 685.699219 469.769531 C 685.148438 469.324219 684.574219 468.90625 683.984375 468.519531 C 683.390625 468.128906 682.78125 467.773438 682.152344 467.445312 C 681.523438 467.117188 680.882812 466.820312 680.226562 466.554688 C 679.570312 466.292969 678.898438 466.0625 678.21875 465.863281 C 677.539062 465.664062 676.851562 465.503906 676.15625 465.371094 C 675.460938 465.242188 674.757812 465.148438 674.050781 465.089844 C 673.347656 465.027344 672.640625 465.003906 671.933594 465.011719 Z M 376.203125 465.011719 " fill-opacity="1" fill-rule="nonzero"/></svg>