<svg xmlns="http://www.w3.org/2000/svg" xmlns:xlink="http://www.w3.org/1999/xlink" width="1080" zoomAndPan="magnify" viewBox="0 0 810 809.999993" height="1080" preserveAspectRatio="xMidYMid meet" version="1.0"><path fill="#5e5e5e" d="M 207.371094 108.558594 C 152.964844 108.558594 108.558594 152.964844 108.558594 207.371094 L 108.558594 602.625 C 108.558594 657.03125 152.964844 701.4375 207.371094 701.4375 L 602.625 701.4375 C 657.03125 701.4375 701.4375 657.03125 701.4375 602.625 L 701.4375 207.371094 C 701.4375 152.964844 657.03125 108.558594 602.625 108.558594 Z M 207.371094 136.789062 L 602.625 136.789062 C 641.777344 136.789062 673.203125 168.21875 673.203125 207.371094 L 673.203125 602.625 C 673.203125 641.777344 641.777344 673.203125 602.625 673.203125 L 207.371094 673.203125 C 168.21875 673.203125 136.789062 641.777344 136.789062 602.625 L 136.789062 207.371094 C 136.789062 168.21875 168.21875 136.789062 207.371094 136.789062 Z M 236.816406 235.605469 L 367.003906 420.574219 L 235.605469 574.390625 L 270.894531 574.390625 L 382.941406 443.210938 L 475.246094 574.390625 L 587.292969 574.390625 L 444.367188 371.304688 L 560.277344 235.605469 L 524.984375 235.605469 L 428.433594 348.671875 L 348.863281 235.605469 Z M 290.855469 263.835938 L 334.113281 263.835938 L 533.257812 546.160156 L 490 546.160156 Z M 290.855469 263.835938 " fill-opacity="1" fill-rule="nonzero"/></svg>